<svg width="100%" height="100%" viewBox="0 0 660 320" fill="none" xmlns="http://www.w3.org/2000/svg">
<path d="M314.822 37.2356C320.502 26.7894 335.498 26.7894 341.178 37.2355L370.781 91.6791C372.935 95.641 376.758 98.4234 381.19 99.2559L442.034 110.684C453.69 112.873 458.315 127.085 450.18 135.715L407.602 180.885C404.518 184.156 403.065 188.639 403.641 193.098L411.454 253.484C413.009 265.508 400.396 274.314 389.645 268.71L334.933 240.194C330.588 237.929 325.412 237.929 321.067 240.194L266.355 268.71C255.604 274.314 242.991 265.508 244.546 253.484L252.359 193.098C252.936 188.639 251.482 184.156 248.398 180.885L205.82 135.715C197.685 127.085 202.31 112.873 213.966 110.684L274.81 99.2559C279.242 98.4234 283.065 95.641 285.219 91.6791L314.822 37.2356Z" fill="#F2C912"/>
<path d="M314.493 45.2532C320.172 34.8027 335.173 34.8027 340.852 45.2532L367.727 94.7078C369.88 98.6708 373.703 101.454 378.136 102.288L433.392 112.672C445.045 114.862 449.67 129.069 441.539 137.7L402.857 178.761C399.775 182.033 398.323 186.513 398.899 190.97L405.981 245.74C407.535 257.766 394.92 266.571 384.168 260.964L334.609 235.117C330.262 232.851 325.083 232.851 320.736 235.117L271.176 260.964C260.425 266.571 247.809 257.766 249.364 245.74L256.446 190.97C257.022 186.513 255.569 182.032 252.488 178.761L213.805 137.7C205.675 129.069 210.3 114.862 221.953 112.672L277.209 102.288C281.642 101.454 285.464 98.6709 287.618 94.7078L314.493 45.2532Z" fill="#FDD41E"/>
<path d="M568.322 24.2355C574.002 13.7894 588.998 13.7894 594.678 24.2355L603.809 41.0283C605.963 44.9902 609.786 47.7726 614.218 48.6051L633.034 52.1392C644.69 54.3285 649.315 68.54 641.18 77.1702L627.977 91.1765C624.893 94.4482 623.44 98.9308 624.016 103.39L626.327 121.246C627.882 133.271 615.269 142.076 604.518 136.473L588.433 128.089C584.088 125.825 578.912 125.825 574.567 128.089L558.482 136.473C547.731 142.076 535.118 133.271 536.674 121.246L538.984 103.39C539.561 98.9308 538.107 94.4482 535.023 91.1765L521.82 77.1701C513.685 68.54 518.31 54.3285 529.966 52.1392L548.782 48.6051C553.214 47.7726 557.037 44.9902 559.191 41.0283L568.322 24.2355Z" fill="#F2C912"/>
<path d="M568.138 28.707C573.817 18.2565 588.818 18.2565 594.497 28.707L602.109 42.7135C604.262 46.6766 608.085 49.4602 612.518 50.2933L628.228 53.2459C639.881 55.4359 644.506 69.6428 636.376 78.2733L625.334 89.9948C622.252 93.266 620.799 97.7467 621.376 102.204L623.28 116.932C624.835 128.958 612.219 137.763 601.468 132.156L588.254 125.264C583.907 122.998 578.728 122.998 574.381 125.264L561.167 132.156C550.416 137.763 537.8 128.958 539.355 116.932L541.259 102.204C541.836 97.7467 540.383 93.266 537.301 89.9948L526.259 78.2733C518.129 69.6428 522.754 55.4359 534.407 53.2459L550.117 50.2933C554.55 49.4602 558.373 46.6766 560.527 42.7135L568.138 28.707Z" fill="#FDD41E"/>
<path d="M65.3221 24.2355C71.0021 13.7894 85.9979 13.7894 91.6779 24.2355L100.809 41.0283C102.963 44.9902 106.786 47.7726 111.218 48.6051L130.034 52.1392C141.69 54.3285 146.315 68.54 138.18 77.1702L124.977 91.1765C121.893 94.4482 120.44 98.9308 121.016 103.39L123.327 121.246C124.882 133.271 112.269 142.076 101.518 136.473L85.433 128.089C81.0883 125.825 75.9117 125.825 71.5671 128.089L55.4825 136.473C44.7308 142.076 32.1179 133.271 33.6735 121.246L35.9836 103.39C36.5605 98.9308 35.1068 94.4482 32.0228 91.1765L18.8202 77.1701C10.6853 68.54 15.3104 54.3285 26.9664 52.1392L45.7822 48.6051C50.2145 47.7726 54.0369 44.9902 56.1912 41.0283L65.3221 24.2355Z" fill="#F2C912"/>
<path d="M65.1379 28.707C70.8169 18.2565 85.8182 18.2565 91.4973 28.707L99.1087 42.7135C101.262 46.6766 105.085 49.4602 109.518 50.2933L125.228 53.2459C136.881 55.4359 141.506 69.6428 133.376 78.2733L122.334 89.9948C119.252 93.266 117.799 97.7467 118.376 102.204L120.28 116.932C121.835 128.958 109.219 137.763 98.4677 132.156L85.2538 125.264C80.9074 122.998 75.7277 122.998 71.3814 125.264L58.1674 132.156C47.4161 137.763 34.8003 128.958 36.3551 116.932L38.2594 102.204C38.8357 97.7467 37.3832 93.266 34.3015 89.9948L23.2592 78.2733C15.1288 69.6428 19.7538 55.4359 31.4069 53.2459L47.1174 50.2933C51.5502 49.4602 55.3729 46.6766 57.5265 42.7135L65.1379 28.707Z" fill="#FDD41E"/>
<path d="M27.8948 229L93.8948 202L122.895 200L194.895 259C194.728 259.5 194.495 263.7 194.895 276.5C175.295 277.3 132.395 290.5 113.395 297C104.395 300.5 82.7948 309.4 68.3948 317C53.9948 324.6 54.0614 314.5 55.8948 308.5L73.3948 260.5C60.5614 255.667 33.1948 244.9 26.3948 240.5C19.5948 236.1 24.5614 231 27.8948 229Z" fill="#4FA53A"/>
<path fill-rule="evenodd" clip-rule="evenodd" d="M56.8087 306.574L73.8348 259.874C63.8443 256.111 45.0462 248.753 34 243.602C50.2927 235.488 77.1085 223.781 100.335 218.874C112.394 216.326 129.207 216.633 146.387 218.264L195.335 258.374C195.168 258.874 194.935 263.074 195.335 275.874C195.177 275.88 195.017 275.888 194.857 275.896L194.835 275.874C179.001 276.874 144.535 277.974 133.335 274.374C107.835 282.874 77.3348 294.374 68.8348 299.374C65.9393 301.077 61.4905 303.747 56.8087 306.574Z" fill="#408630"/>
<path d="M627.44 229L561.44 202L532.44 200L460.44 259C460.607 259.5 460.84 263.7 460.44 276.5C480.04 277.3 522.94 290.5 541.94 297C550.94 300.5 572.54 309.4 586.94 317C601.34 324.6 601.273 314.5 599.44 308.5L581.94 260.5C594.773 255.667 622.14 244.9 628.94 240.5C635.74 236.1 630.773 231 627.44 229Z" fill="#4FA53A"/>
<path fill-rule="evenodd" clip-rule="evenodd" d="M599.994 307.856L582.5 259.874C592.182 256.227 610.138 249.203 621.291 244.084C604.914 235.998 578.737 224.678 556 219.874C543.617 217.258 526.222 217.652 508.564 219.398L461 258.374C461.167 258.874 461.4 263.074 461 275.874C464.658 276.023 469.127 276.604 474.101 277.493C491.276 278.13 514.246 278.188 523 275.374C548.5 283.874 579 295.374 587.5 300.374C590.492 302.134 595.142 304.926 599.994 307.856Z" fill="#408630"/>
<path d="M314.586 136.011C224.186 136.411 133.253 160.511 99.0864 172.511C83.0864 177.622 93.0864 196.511 93.0864 196.511C93.0864 196.511 117.786 255.711 124.586 266.511C131.386 277.311 146.42 274.344 153.086 271.511C175.253 261.344 239.086 242.511 315.086 242.511C410.086 242.511 478.586 263.011 504.586 271.511C525.386 278.311 530.265 270.511 532.086 266.511C540.586 247.844 558.686 207.711 563.086 196.511C567.486 185.311 567.586 179.011 563.086 176.011C557.253 173.011 539.686 165.511 516.086 159.511C486.586 152.011 427.586 135.511 314.586 136.011Z" fill="#51AB3D"/>
<path fill-rule="evenodd" clip-rule="evenodd" d="M564.764 191.38C563.838 190.749 562.85 190.195 561.798 189.729C544.283 181.98 447.698 150.984 323.088 150.015C232.03 149.307 137.66 173.33 92 188.568C92.8813 191.479 93.957 193.511 93.957 193.511C93.957 193.511 111.523 235.612 121.106 255.283C125.209 253.734 129.06 252.348 132.42 251.237C152.938 244.457 226.503 221.21 323.088 218.788C400.356 216.851 494.072 244.134 531.271 258.018L534.671 259.741C543.683 239.904 559.834 204.006 563.957 193.511C564.244 192.78 564.513 192.069 564.764 191.38Z" fill="#4D9F39"/>
<path d="M298.141 154.074C411.741 144.074 524.808 175.574 567.141 192.574L584.641 184.074L553.141 154.074C513.974 148.741 416.541 137.674 340.141 136.074C244.641 134.074 118.641 173.074 105.141 178.074C94.3411 182.074 95.3077 189.408 97.1411 192.574L126.823 256.868C127.845 259.082 130.062 260.5 132.5 260.5C135.5 257.5 127.1 229.5 127.5 207.5C127.9 185.5 141.5 182.5 141.5 182.5C141.5 182.5 184.541 164.074 298.141 154.074Z" fill="url(#paint0_linear_3_348)"/>
<path d="M157.804 223.535C157.884 223.943 156.975 224.463 155.077 225.096C153.211 225.723 151.32 226.225 149.405 226.6C147.489 226.976 146.243 227.106 145.666 226.991C145.089 226.876 144.754 226.583 144.662 226.112L138.99 197.191C138.836 196.406 139.589 195.508 141.25 194.498C142.942 193.481 144.934 192.748 147.226 192.298C148.042 192.138 148.661 192.05 149.081 192.032C150.18 191.98 151.066 192.507 151.74 193.614L158.645 204.88L158.833 204.843L156.653 193.727C156.499 192.942 157.252 192.044 158.913 191.033C160.574 190.023 162.55 189.293 164.842 188.843C166.821 188.455 168.151 188.586 168.832 189.235C169.314 189.695 169.598 190.144 169.684 190.584L175.467 220.07C175.547 220.478 174.638 220.999 172.741 221.632C170.874 222.259 168.779 222.8 166.456 223.256C164.163 223.706 162.849 223.654 162.512 223.1L155.859 212.372L155.623 212.418L157.804 223.535Z" fill="white"/>
<path d="M208.912 216.256L188.79 219.305C187.239 219.54 186.178 219.587 185.607 219.447C185.036 219.307 184.714 219 184.642 218.525L180.09 188.484C179.965 187.662 180.241 187.021 180.916 186.563C181.622 186.1 182.94 185.722 184.87 185.43L203.949 182.539C204.613 182.438 205.113 183.495 205.449 185.71C205.779 187.893 205.891 189.591 205.784 190.805C205.672 191.987 205.378 192.614 204.904 192.686C202.847 192.998 199.351 193.317 194.417 193.644L194.899 196.824C199.552 195.924 202.591 195.367 204.015 195.151C204.869 195.022 205.447 195.954 205.749 197.947C206.051 199.94 206.107 201.485 205.918 202.582C205.755 203.642 205.388 204.216 204.819 204.302L196.2 205.414L196.66 208.451C202.103 207.206 205.869 206.425 207.957 206.108C208.621 206.008 209.121 207.065 209.457 209.279C209.792 211.494 209.904 213.192 209.792 214.375C209.68 215.557 209.386 216.184 208.912 216.256Z" fill="white"/>
<path d="M232.17 213.38C230.641 213.533 229.627 213.522 229.127 213.347C228.628 213.172 228.255 212.823 228.01 212.301L214.541 184.222C214.48 183.617 215.54 182.804 217.721 181.781C219.934 180.756 222.203 180.127 224.527 179.895C227.521 179.595 229.207 180.375 229.585 182.235L232.724 197.213L233.392 197.146L233.215 181.872C233.187 179.977 235.242 178.823 239.381 178.409C240.973 178.25 242.062 178.366 242.648 178.758C243.231 179.117 243.589 179.644 243.723 180.339L246.861 195.799L247.53 195.732L247.257 180.467C247.26 179.535 248.273 178.726 250.295 178.041C252.349 177.353 254.394 176.908 256.432 176.704C258.502 176.497 259.933 176.659 260.726 177.191C261.551 177.719 261.997 178.318 262.063 178.987L254.804 209.621C254.553 210.643 252.246 211.372 247.883 211.809C246.578 211.939 245.691 211.915 245.223 211.737C244.755 211.559 244.414 211.207 244.201 210.682L240.886 202.62L240.313 202.677L238.613 211.241C238.425 212.256 236.277 212.97 232.17 213.38Z" fill="white"/>
<path d="M301.575 207.138C301.587 207.554 300.62 207.917 298.676 208.228C296.732 208.538 294.768 208.721 292.785 208.776C290.834 208.831 289.567 208.754 288.985 208.546C288.435 208.338 288.154 207.993 288.14 207.513L287.279 176.661C287.256 175.83 288.279 175.209 290.348 174.799C292.449 174.388 295.099 174.138 298.298 174.049C301.497 173.96 303.561 173.918 304.489 173.924C305.449 173.897 306.57 173.914 307.852 173.974C309.134 174.035 310.146 174.166 310.888 174.37C311.662 174.572 312.502 174.837 313.407 175.164C314.345 175.49 315.077 175.933 315.605 176.495C316.132 177.024 316.646 177.666 317.148 178.421C318.05 179.772 318.536 181.727 318.608 184.286C318.678 186.813 318.306 188.968 317.492 190.752C316.708 192.502 315.625 193.845 314.243 194.78C318.083 200.467 320.025 204.094 320.069 205.662C320.113 207.229 316.984 208.101 310.682 208.277C308.859 208.328 307.593 208.283 306.885 208.143C306.177 208.002 305.719 207.663 305.512 207.124L302.117 197.327L301.3 197.302L301.575 207.138ZM301.094 189.913L302.342 189.878C304.197 189.826 305.084 188.361 305.004 185.482C304.963 184.011 304.678 182.978 304.149 182.385C303.652 181.791 303.084 181.502 302.444 181.52L300.861 181.564L301.094 189.913Z" fill="white"/>
<path d="M352.141 208.394L331.791 208.092C330.223 208.069 329.169 207.941 328.629 207.709C328.088 207.477 327.821 207.121 327.828 206.641L328.278 176.261C328.291 175.429 328.667 174.842 329.408 174.501C330.182 174.161 331.544 174.005 333.496 174.034L352.79 174.319C353.462 174.329 353.781 175.454 353.748 177.694C353.715 179.902 353.546 181.595 353.24 182.775C352.935 183.923 352.543 184.493 352.063 184.486C349.983 184.455 346.483 184.195 341.561 183.706L341.514 186.922C346.252 186.8 349.341 186.75 350.781 186.771C351.645 186.784 352.062 187.798 352.032 189.814C352.002 191.83 351.804 193.363 351.436 194.414C351.101 195.433 350.645 195.938 350.069 195.93L341.385 195.609L341.34 198.681C346.913 198.347 350.756 198.196 352.868 198.227C353.54 198.237 353.859 199.362 353.826 201.602C353.793 203.842 353.623 205.535 353.318 206.683C353.013 207.83 352.621 208.401 352.141 208.394Z" fill="white"/>
<path d="M386.484 209.706C385.19 209.922 383.869 210.041 382.522 210.062C381.205 210.116 379.907 210.108 378.629 210.036C377.383 209.967 376.411 209.88 375.711 209.777C375.044 209.676 374.158 209.466 373.054 209.148C371.95 208.83 370.948 208.421 370.046 207.922C369.144 207.423 368.191 206.713 367.184 205.791C366.21 204.871 365.405 203.801 364.768 202.579C363.292 199.741 362.675 196.149 362.918 191.803C363.081 188.896 363.672 186.349 364.691 184.162C365.743 181.978 366.942 180.314 368.287 179.171C369.665 178.03 371.205 177.139 372.908 176.497C375.659 175.433 378.393 174.977 381.109 175.128C385.007 175.346 387.785 175.822 389.442 176.556C390.193 176.886 390.855 177.372 391.428 178.013C392.001 178.654 392.256 179.549 392.191 180.699C392.127 181.85 391.758 183.287 391.085 185.012C390.444 186.739 389.596 187.573 388.541 187.514C388.222 187.497 387.054 187.175 385.038 186.549C383.022 185.924 381.646 185.591 380.911 185.55C379.793 185.487 378.8 186.057 377.931 187.258C377.095 188.461 376.612 190.213 376.484 192.513C376.355 194.814 376.591 196.622 377.19 197.937C377.822 199.255 378.697 199.944 379.815 200.007C380.614 200.052 382.069 199.812 384.182 199.289C386.328 198.736 387.577 198.47 387.928 198.489C388.919 198.545 389.635 199.498 390.076 201.35C390.549 203.203 390.755 204.689 390.692 205.807C390.63 206.925 390.228 207.8 389.488 208.432C388.781 209.033 387.78 209.458 386.484 209.706Z" fill="white"/>
<path d="M415.109 212.94C412.467 212.673 410.215 212.204 408.353 211.533C406.526 210.833 404.881 209.766 403.418 208.332C400.457 205.491 399.337 200.505 400.058 193.374C400.361 190.381 401.055 187.814 402.14 185.672C403.257 183.534 404.662 181.891 406.354 180.743C409.668 178.505 413.76 177.633 418.631 178.126C421.147 178.38 423.305 178.824 425.106 179.456C426.94 180.092 428.625 181.083 430.161 182.428C433.259 185.186 434.464 189.971 433.774 196.785C433.156 202.897 431.188 207.249 427.87 209.841C424.553 212.432 420.299 213.465 415.109 212.94ZM414.36 204.614C414.697 205.099 415.199 205.375 415.868 205.442C416.537 205.51 417.084 205.34 417.512 204.933C417.942 204.494 418.36 203.539 418.766 202.069C419.176 200.566 419.517 198.462 419.791 195.756C420.065 193.05 420.148 190.951 420.042 189.461C419.935 187.971 419.713 186.984 419.376 186.499C419.039 186.015 418.537 185.739 417.868 185.671C417.2 185.604 416.652 185.773 416.225 186.18C415.797 186.587 415.382 187.51 414.98 188.949C414.577 190.388 414.238 192.46 413.965 195.166C413.691 197.873 413.604 200.003 413.704 201.557C413.807 203.079 414.026 204.098 414.36 204.614Z" fill="white"/>
<path d="M453.882 215.883C453.821 216.295 452.806 216.483 450.837 216.45C448.869 216.416 446.903 216.253 444.941 215.962C443.01 215.675 441.776 215.378 441.24 215.072C440.734 214.77 440.517 214.382 440.588 213.907L445.125 183.379C445.247 182.556 446.363 182.123 448.472 182.081C450.613 182.043 453.266 182.259 456.431 182.73C459.596 183.2 461.635 183.519 462.548 183.687C463.498 183.828 464.599 184.041 465.851 184.324C467.103 184.607 468.076 184.913 468.771 185.243C469.498 185.577 470.279 185.985 471.113 186.465C471.979 186.949 472.623 187.514 473.045 188.159C473.472 188.772 473.866 189.494 474.228 190.324C474.88 191.812 475.018 193.822 474.642 196.355C474.27 198.855 473.528 200.912 472.414 202.526C471.337 204.113 470.037 205.246 468.512 205.926C471.301 212.196 472.58 216.106 472.35 217.657C472.119 219.208 468.886 219.52 462.65 218.594C460.846 218.325 459.608 218.061 458.935 217.799C458.262 217.537 457.871 217.123 457.761 216.557L456.128 206.317L455.328 206.15L453.882 215.883ZM456.415 198.838L457.649 199.022C459.485 199.295 460.615 198.007 461.038 195.158C461.254 193.702 461.154 192.636 460.737 191.959C460.352 191.287 459.842 190.904 459.209 190.81L457.642 190.577L456.415 198.838Z" fill="white"/>
<path d="M494.562 224.235L483.446 222.055C481.907 221.753 480.893 221.44 480.402 221.116C479.911 220.791 479.715 220.378 479.814 219.875L485.643 190.154C485.803 189.337 486.262 188.824 487.021 188.614C487.786 188.373 489.016 188.418 490.712 188.751L501.31 190.83C507.339 192.012 511.266 194.021 513.09 196.857C514.92 199.662 515.223 204.189 513.997 210.438C512.771 216.687 510.716 220.849 507.831 222.925C504.951 224.969 500.529 225.406 494.562 224.235ZM499.368 197.737C498.614 197.589 498.1 197.553 497.824 197.63L494.092 216.659L495.845 217.199C496.787 217.383 497.641 216.768 498.408 215.353C499.206 213.945 499.968 211.388 500.695 207.682C501.421 203.977 501.657 201.447 501.401 200.092C501.145 198.738 500.467 197.953 499.368 197.737Z" fill="white"/>
<defs>
<linearGradient id="paint0_linear_3_348" x1="121.5" y1="179.5" x2="493" y2="145" gradientUnits="userSpaceOnUse">
<stop stop-color="#FCFCFC" stop-opacity="0.25"/>
<stop offset="1" stop-color="#C4C4C4" stop-opacity="0"/>
</linearGradient>
</defs>
</svg>
