<svg width="100%" height="100%" viewBox="0 0 660 321" fill="none" xmlns="http://www.w3.org/2000/svg">
<path d="M340.739 37.4744L370.342 91.9179C372.568 96.0119 376.518 98.8871 381.098 99.7473L441.941 111.175C453.209 113.292 457.68 127.029 449.816 135.372L407.238 180.542C404.052 183.922 402.549 188.554 403.146 193.162L410.958 253.548C412.462 265.171 400.269 273.684 389.876 268.267L335.164 239.75C330.675 237.411 325.325 237.411 320.836 239.75L266.124 268.267C255.731 273.684 243.539 265.171 245.042 253.548L252.855 193.162C253.451 188.554 251.948 183.922 248.762 180.542L206.184 135.372C198.32 127.029 202.791 113.292 214.059 111.175L274.902 99.7473C279.482 98.8871 283.432 96.0119 285.658 91.9179L315.261 37.4744C320.752 27.3765 335.248 27.3765 340.739 37.4744Z" fill="#F2C912" stroke="#5B5B5B"/>
<path d="M314.331 55.1456C320.016 44.7218 334.984 44.7218 340.669 55.1457L364.217 98.3218C366.374 102.278 370.196 105.054 374.625 105.883L422.965 114.936C434.636 117.121 439.261 131.357 431.104 139.984L397.317 175.72C394.221 178.994 392.761 183.487 393.341 187.955L399.513 235.515C401.072 247.533 388.475 256.343 377.721 250.755L334.416 228.253C330.081 226 324.919 226 320.584 228.253L277.279 250.755C266.526 256.343 253.928 247.533 255.487 235.515L261.659 187.955C262.239 183.487 260.779 178.994 257.683 175.72L223.896 139.984C215.739 131.357 220.364 117.121 232.035 114.936L280.376 105.883C284.804 105.054 288.626 102.278 290.783 98.3218L314.331 55.1456Z" fill="#FDD41E"/>
<path d="M594.239 24.4744L603.37 41.2671C605.596 45.3611 609.546 48.2362 614.125 49.0965L632.941 52.6306C644.209 54.7469 648.68 68.4847 640.816 76.8272L627.613 90.8335C624.427 94.2143 622.924 98.8464 623.521 103.454L625.831 121.31C627.334 132.934 615.142 141.446 604.749 136.029L588.664 127.646C584.175 125.306 578.825 125.306 574.336 127.646L558.251 136.029C547.858 141.446 535.666 132.934 537.169 121.31L539.48 103.454C540.076 98.8463 538.573 94.2143 535.387 90.8335L522.184 76.8272C514.32 68.4847 518.791 54.7469 530.059 52.6306L548.875 49.0965C553.454 48.2362 557.404 45.3611 559.63 41.2671L568.761 24.4744C574.252 14.3764 588.748 14.3764 594.239 24.4744Z" fill="#F2C912" stroke="#5B5B5B"/>
<path d="M568.294 34.5182C573.958 24.0025 589.042 24.0025 594.706 34.5182L600.221 44.7565C602.365 48.7372 606.19 51.5384 610.633 52.3807L622.247 54.583C633.857 56.7843 638.481 70.921 630.417 79.5576L622.086 88.4796C619.038 91.7432 617.603 96.1947 618.171 100.624L619.55 111.386C621.094 123.43 608.433 132.221 597.687 126.567L588.485 121.725C584.112 119.425 578.888 119.425 574.515 121.725L565.313 126.567C554.567 132.221 541.906 123.43 543.45 111.386L544.829 100.624C545.397 96.1947 543.962 91.7432 540.914 88.4796L532.583 79.5576C524.519 70.921 529.143 56.7843 540.753 54.583L552.367 52.3807C556.81 51.5384 560.635 48.7372 562.779 44.7565L568.294 34.5182Z" fill="#FDD41E"/>
<path d="M91.2387 24.4744L100.37 41.2671C102.596 45.3611 106.546 48.2362 111.125 49.0965L129.941 52.6306C141.209 54.7469 145.68 68.4847 137.816 76.8272L124.613 90.8335C121.427 94.2143 119.924 98.8464 120.521 103.454L122.831 121.31C124.334 132.934 112.142 141.446 101.749 136.029L85.664 127.646C81.1746 125.306 75.8254 125.306 71.336 127.646L55.2514 136.029C44.8581 141.446 32.6656 132.934 34.1694 121.31L36.4795 103.454C37.0756 98.8463 35.5734 94.2143 32.3866 90.8335L19.1841 76.8272C11.3203 68.4847 15.7913 54.7469 27.0587 52.6306L45.8745 49.0965C50.4545 48.2362 54.4044 45.3611 56.6305 41.2671L65.7614 24.4744C71.2521 14.3764 85.748 14.3764 91.2387 24.4744Z" fill="#F2C912" stroke="#5B5B5B"/>
<path d="M65.2939 34.5182C70.9579 24.0025 86.0421 24.0025 91.7062 34.5182L97.2208 44.7565C99.3649 48.7372 103.19 51.5384 107.633 52.3807L119.247 54.583C130.857 56.7843 135.481 70.921 127.417 79.5576L119.086 88.4796C116.038 91.7432 114.603 96.1947 115.171 100.624L116.55 111.386C118.094 123.43 105.433 132.221 94.6874 126.567L85.4846 121.725C81.1123 119.425 75.8877 119.425 71.5154 121.725L62.3127 126.567C51.5666 132.221 38.9062 123.43 40.4497 111.386L41.829 100.624C42.3966 96.1947 40.9616 91.7432 37.9142 88.4796L29.5834 79.5576C21.519 70.921 26.1431 56.7843 37.7526 54.583L49.3675 52.3807C53.8098 51.5384 57.6351 48.7372 59.7793 44.7565L65.2939 34.5182Z" fill="#FDD41E"/>
<path d="M27.8948 229L93.8948 202L122.895 200L194.895 259C194.728 259.5 194.495 263.7 194.895 276.5C175.295 277.3 132.395 290.5 113.395 297C104.395 300.5 82.7948 309.4 68.3948 317C53.9948 324.6 54.0614 314.5 55.8948 308.5L73.3948 260.5C60.5614 255.667 33.1948 244.9 26.3948 240.5C19.5948 236.1 24.5614 231 27.8948 229Z" fill="#4FA53A" stroke="#5B5B5B"/>
<path fill-rule="evenodd" clip-rule="evenodd" d="M56.8087 306.574L73.8348 259.874C63.8443 256.111 45.0462 248.753 34 243.602C50.2927 235.488 77.1084 223.781 100.335 218.874C112.394 216.326 129.207 216.633 146.387 218.264L195.335 258.374C195.168 258.874 194.935 263.074 195.335 275.874C195.177 275.88 195.017 275.888 194.857 275.896L194.835 275.874C179.001 276.874 144.535 277.974 133.335 274.374C107.835 282.874 77.3348 294.374 68.8348 299.374C65.9393 301.077 61.4905 303.747 56.8087 306.574Z" fill="#408630"/>
<path d="M56.8087 306.574L56.339 306.403L55.8533 307.735L57.0671 307.002L56.8087 306.574ZM73.8348 259.874L74.3045 260.045L74.474 259.58L74.011 259.406L73.8348 259.874ZM34 243.602L33.7771 243.154L32.8487 243.616L33.7887 244.055L34 243.602ZM100.335 218.874L100.438 219.363L100.335 218.874ZM146.387 218.264L146.704 217.877L146.586 217.781L146.434 217.766L146.387 218.264ZM195.335 258.374L195.809 258.532L195.918 258.205L195.652 257.987L195.335 258.374ZM195.335 275.874L195.355 276.374L195.85 276.353L195.835 275.858L195.335 275.874ZM194.857 275.896L194.503 276.249L194.66 276.406L194.881 276.395L194.857 275.896ZM194.835 275.874L195.188 275.52L195.029 275.361L194.803 275.375L194.835 275.874ZM133.335 274.374L133.488 273.898L133.332 273.848L133.177 273.9L133.335 274.374ZM68.8348 299.374L68.5813 298.943L68.5813 298.943L68.8348 299.374ZM57.2785 306.745L74.3045 260.045L73.365 259.703L56.339 306.403L57.2785 306.745ZM74.011 259.406C64.0211 255.644 45.2387 248.291 34.2113 243.148L33.7887 244.055C44.8537 249.215 63.6675 256.579 73.6586 260.342L74.011 259.406ZM100.231 218.385C76.9425 223.305 50.0817 235.034 33.7771 243.154L34.2229 244.049C50.5037 235.941 77.2744 224.257 100.438 219.363L100.231 218.385ZM146.434 217.766C129.245 216.135 112.368 215.821 100.231 218.385L100.438 219.363C112.419 216.832 129.169 217.132 146.34 218.762L146.434 217.766ZM146.07 218.651L195.018 258.761L195.652 257.987L146.704 217.877L146.07 218.651ZM194.86 258.216C194.821 258.333 194.795 258.501 194.774 258.687C194.751 258.888 194.729 259.153 194.709 259.49C194.669 260.165 194.637 261.145 194.622 262.506C194.593 265.228 194.635 269.486 194.835 275.89L195.835 275.858C195.635 269.462 195.593 265.22 195.622 262.517C195.637 261.165 195.669 260.202 195.707 259.549C195.727 259.222 195.747 258.977 195.767 258.802C195.777 258.714 195.787 258.647 195.795 258.599C195.805 258.546 195.81 258.529 195.809 258.532L194.86 258.216ZM195.314 275.374C195.155 275.381 194.994 275.388 194.832 275.396L194.881 276.395C195.041 276.387 195.199 276.38 195.355 276.374L195.314 275.374ZM194.481 276.228L194.503 276.249L195.21 275.542L195.188 275.52L194.481 276.228ZM133.182 274.85C136.041 275.769 140.345 276.378 145.404 276.766C150.474 277.155 156.341 277.324 162.345 277.349C174.355 277.399 186.941 276.874 194.866 276.373L194.803 275.375C186.895 275.874 174.332 276.399 162.349 276.349C156.358 276.324 150.518 276.155 145.481 275.769C140.433 275.382 136.228 274.779 133.488 273.898L133.182 274.85ZM69.0883 299.805C73.2962 297.33 83.0056 293.219 94.8891 288.653C106.757 284.094 120.749 279.096 133.493 274.848L133.177 273.9C120.42 278.152 106.413 283.154 94.5305 287.72C82.6639 292.279 72.8734 296.418 68.5813 298.943L69.0883 299.805ZM57.0671 307.002C61.7489 304.176 66.1955 301.507 69.0883 299.805L68.5813 298.943C65.6831 300.648 61.2321 303.319 56.5503 306.146L57.0671 307.002Z" fill="#5B5B5B"/>
<path d="M627.44 229L561.44 202L532.44 200L460.44 259C460.607 259.5 460.84 263.7 460.44 276.5C480.04 277.3 522.94 290.5 541.94 297C550.94 300.5 572.54 309.4 586.94 317C601.34 324.6 601.273 314.5 599.44 308.5L581.94 260.5C594.773 255.667 622.14 244.9 628.94 240.5C635.74 236.1 630.773 231 627.44 229Z" fill="#4FA53A" stroke="#5B5B5B"/>
<path fill-rule="evenodd" clip-rule="evenodd" d="M599.994 307.856L582.5 259.874C592.182 256.227 610.138 249.203 621.291 244.084C604.914 235.998 578.737 224.678 556 219.874C543.617 217.258 526.222 217.652 508.564 219.398L461 258.374C461.167 258.874 461.4 263.074 461 275.874C464.658 276.023 469.127 276.604 474.101 277.493C491.276 278.13 514.246 278.188 523 275.374C548.5 283.874 579 295.374 587.5 300.374C590.492 302.134 595.142 304.926 599.994 307.856Z" fill="#408630"/>
<path d="M599.994 307.856L600.463 307.685L600.949 309.018L599.735 308.284L599.994 307.856ZM582.5 259.874L582.03 260.045L581.861 259.58L582.324 259.406L582.5 259.874ZM621.291 244.084L621.513 243.636L622.454 244.101L621.5 244.539L621.291 244.084ZM556 219.874L556.103 219.385L556.103 219.385L556 219.874ZM508.564 219.398L508.247 219.011L508.364 218.915L508.515 218.9L508.564 219.398ZM461 258.374L460.526 258.532L460.417 258.205L460.683 257.987L461 258.374ZM461 275.874L460.98 276.374L460.485 276.353L460.5 275.858L461 275.874ZM474.101 277.493L474.083 277.993L474.048 277.992L474.013 277.986L474.101 277.493ZM523 275.374L522.847 274.898L523.003 274.848L523.158 274.9L523 275.374ZM587.5 300.374L587.246 300.805L587.246 300.805L587.5 300.374ZM599.524 308.028L582.03 260.045L582.97 259.703L600.463 307.685L599.524 308.028ZM582.324 259.406C592.005 255.76 609.946 248.741 621.083 243.63L621.5 244.539C610.329 249.665 592.36 256.695 582.676 260.342L582.324 259.406ZM556.103 219.385C578.902 224.201 605.124 235.543 621.513 243.636L621.07 244.533C604.705 236.452 578.572 225.154 555.897 220.363L556.103 219.385ZM508.515 218.9C526.182 217.153 543.641 216.752 556.103 219.385L555.897 220.363C543.593 217.764 526.262 218.15 508.613 219.896L508.515 218.9ZM508.881 219.785L461.317 258.761L460.683 257.987L508.247 219.011L508.881 219.785ZM461.474 258.216C461.513 258.333 461.54 258.501 461.561 258.687C461.584 258.888 461.606 259.153 461.626 259.49C461.665 260.165 461.698 261.145 461.712 262.506C461.742 265.228 461.7 269.486 461.5 275.89L460.5 275.858C460.7 269.462 460.742 265.22 460.712 262.517C460.698 261.165 460.666 260.202 460.627 259.549C460.608 259.222 460.588 258.977 460.567 258.802C460.557 258.714 460.548 258.647 460.539 258.599C460.53 258.546 460.524 258.529 460.526 258.532L461.474 258.216ZM461.02 275.374C464.71 275.525 469.204 276.11 474.189 277.001L474.013 277.986C469.05 277.099 464.605 276.522 460.98 276.374L461.02 275.374ZM523.153 275.85C518.698 277.282 510.699 277.97 501.723 278.227C492.724 278.486 482.676 278.312 474.083 277.993L474.12 276.994C482.701 277.312 492.726 277.485 501.694 277.228C510.685 276.97 518.547 276.28 522.847 274.898L523.153 275.85ZM587.246 300.805C583.039 298.33 573.329 294.219 561.446 289.653C549.578 285.094 535.585 280.096 522.842 275.848L523.158 274.9C535.915 279.152 549.922 284.154 561.804 288.72C573.671 293.279 583.461 297.418 587.753 299.943L587.246 300.805ZM599.735 308.284C594.883 305.354 590.235 302.563 587.246 300.805L587.753 299.943C590.748 301.704 595.4 304.498 600.252 307.428L599.735 308.284Z" fill="#5B5B5B"/>
<path d="M314.586 136.011C224.186 136.411 133.253 160.511 99.0864 172.511C83.0864 177.622 93.0864 196.511 93.0864 196.511C93.0864 196.511 117.786 255.711 124.586 266.511C131.386 277.311 146.42 274.344 153.086 271.511C175.253 261.344 239.086 242.511 315.086 242.511C410.086 242.511 478.586 263.011 504.586 271.511C525.386 278.311 530.265 270.511 532.086 266.511C540.586 247.844 558.686 207.711 563.086 196.511C567.486 185.311 567.586 179.011 563.086 176.011C557.253 173.011 539.686 165.511 516.086 159.511C486.586 152.011 427.586 135.511 314.586 136.011Z" fill="#51AB3D" stroke="#5B5B5B"/>
<path fill-rule="evenodd" clip-rule="evenodd" d="M564.764 191.38C563.838 190.749 562.85 190.195 561.798 189.729C544.283 181.98 447.698 150.984 323.088 150.015C232.03 149.307 137.66 173.33 92 188.568C92.8813 191.479 93.957 193.511 93.957 193.511C93.957 193.511 111.523 235.612 121.106 255.283C125.209 253.734 129.06 252.348 132.42 251.237C152.938 244.457 226.503 221.21 323.088 218.788C400.356 216.851 494.072 244.134 531.271 258.018L534.671 259.741C543.683 239.904 559.834 204.006 563.957 193.511C564.244 192.78 564.513 192.069 564.764 191.38Z" fill="#4D9F39"/>
<path d="M298.141 154.074C411.741 144.074 524.808 175.574 567.141 192.574L584.641 184.074L553.141 154.074C513.974 148.741 416.541 137.674 340.141 136.074C244.641 134.074 118.641 173.074 105.141 178.074C94.3411 182.074 95.3077 189.408 97.1411 192.574L126.823 256.868C127.845 259.082 130.062 260.5 132.5 260.5C135.5 257.5 127.1 229.5 127.5 207.5C127.9 185.5 141.5 182.5 141.5 182.5C141.5 182.5 184.541 164.074 298.141 154.074Z" fill="url(#paint0_linear_3_348)"/>
<path d="M157.804 223.535C157.884 223.943 156.975 224.463 155.077 225.096C153.211 225.723 151.32 226.225 149.405 226.6C147.489 226.976 146.243 227.106 145.666 226.991C145.089 226.876 144.754 226.583 144.662 226.112L138.99 197.191C138.836 196.406 139.589 195.508 141.25 194.498C142.942 193.481 144.934 192.748 147.226 192.298C148.042 192.138 148.661 192.05 149.081 192.032C150.18 191.98 151.066 192.507 151.74 193.614L158.645 204.88L158.833 204.843L156.653 193.727C156.499 192.942 157.252 192.044 158.913 191.033C160.574 190.023 162.55 189.293 164.842 188.843C166.821 188.455 168.151 188.586 168.832 189.235C169.314 189.695 169.598 190.144 169.684 190.584L175.467 220.07C175.547 220.478 174.638 220.999 172.741 221.632C170.874 222.259 168.779 222.8 166.456 223.256C164.163 223.706 162.849 223.654 162.512 223.1L155.859 212.372L155.623 212.418L157.804 223.535Z" fill="white"/>
<path d="M208.912 216.256L188.79 219.305C187.239 219.54 186.178 219.587 185.607 219.447C185.036 219.307 184.714 219 184.642 218.525L180.09 188.484C179.965 187.662 180.241 187.021 180.916 186.563C181.622 186.1 182.94 185.722 184.87 185.43L203.949 182.539C204.613 182.438 205.113 183.495 205.449 185.71C205.779 187.893 205.891 189.591 205.784 190.805C205.672 191.987 205.378 192.614 204.904 192.686C202.847 192.998 199.351 193.317 194.417 193.644L194.899 196.824C199.552 195.924 202.591 195.367 204.015 195.151C204.869 195.022 205.447 195.954 205.749 197.947C206.051 199.94 206.107 201.485 205.918 202.582C205.755 203.642 205.388 204.216 204.819 204.302L196.2 205.414L196.66 208.451C202.103 207.206 205.869 206.425 207.957 206.108C208.621 206.008 209.121 207.065 209.457 209.279C209.792 211.494 209.904 213.192 209.792 214.375C209.68 215.557 209.386 216.184 208.912 216.256Z" fill="white"/>
<path d="M232.17 213.38C230.641 213.533 229.627 213.522 229.127 213.347C228.628 213.172 228.255 212.823 228.01 212.301L214.541 184.222C214.48 183.617 215.54 182.804 217.721 181.781C219.934 180.756 222.203 180.127 224.527 179.895C227.521 179.595 229.207 180.375 229.585 182.235L232.724 197.213L233.392 197.146L233.215 181.872C233.187 179.977 235.242 178.823 239.381 178.409C240.973 178.25 242.062 178.366 242.648 178.758C243.231 179.117 243.589 179.644 243.723 180.339L246.861 195.799L247.53 195.732L247.257 180.467C247.26 179.535 248.273 178.726 250.295 178.041C252.349 177.353 254.394 176.908 256.432 176.704C258.502 176.497 259.933 176.659 260.726 177.191C261.551 177.719 261.997 178.318 262.063 178.987L254.804 209.621C254.553 210.643 252.246 211.372 247.883 211.809C246.578 211.939 245.691 211.915 245.223 211.737C244.755 211.559 244.414 211.207 244.201 210.682L240.886 202.62L240.313 202.677L238.613 211.241C238.425 212.256 236.277 212.97 232.17 213.38Z" fill="white"/>
<path d="M301.575 207.138C301.587 207.554 300.62 207.917 298.676 208.228C296.732 208.538 294.768 208.721 292.785 208.776C290.834 208.831 289.567 208.754 288.985 208.546C288.435 208.338 288.154 207.993 288.14 207.513L287.279 176.661C287.256 175.83 288.279 175.209 290.348 174.799C292.449 174.388 295.099 174.138 298.298 174.049C301.497 173.96 303.561 173.918 304.489 173.924C305.449 173.897 306.57 173.914 307.852 173.974C309.134 174.035 310.146 174.166 310.888 174.37C311.662 174.572 312.502 174.837 313.407 175.164C314.345 175.49 315.077 175.933 315.605 176.495C316.132 177.024 316.646 177.666 317.148 178.421C318.05 179.772 318.536 181.727 318.608 184.286C318.678 186.813 318.306 188.968 317.492 190.752C316.708 192.502 315.625 193.845 314.243 194.78C318.083 200.467 320.025 204.094 320.069 205.662C320.113 207.229 316.984 208.101 310.682 208.277C308.859 208.328 307.593 208.283 306.885 208.143C306.177 208.002 305.719 207.663 305.512 207.124L302.117 197.327L301.3 197.302L301.575 207.138ZM301.094 189.913L302.342 189.878C304.197 189.826 305.084 188.361 305.004 185.482C304.963 184.011 304.678 182.978 304.149 182.385C303.652 181.791 303.084 181.502 302.444 181.52L300.861 181.564L301.094 189.913Z" fill="white"/>
<path d="M352.141 208.394L331.791 208.092C330.223 208.069 329.169 207.941 328.629 207.709C328.088 207.477 327.821 207.121 327.828 206.641L328.278 176.261C328.291 175.429 328.667 174.842 329.408 174.501C330.182 174.161 331.544 174.005 333.496 174.034L352.79 174.319C353.462 174.329 353.781 175.454 353.748 177.694C353.715 179.902 353.546 181.595 353.24 182.775C352.935 183.923 352.543 184.493 352.063 184.486C349.983 184.455 346.483 184.195 341.561 183.706L341.514 186.922C346.252 186.8 349.341 186.75 350.781 186.771C351.645 186.784 352.062 187.798 352.032 189.814C352.002 191.83 351.804 193.363 351.436 194.414C351.101 195.433 350.645 195.938 350.069 195.93L341.385 195.609L341.34 198.681C346.913 198.347 350.756 198.196 352.868 198.227C353.54 198.237 353.859 199.362 353.826 201.602C353.793 203.842 353.623 205.535 353.318 206.683C353.013 207.83 352.621 208.401 352.141 208.394Z" fill="white"/>
<path d="M386.484 209.706C385.19 209.922 383.869 210.041 382.522 210.062C381.205 210.116 379.907 210.108 378.629 210.036C377.383 209.967 376.411 209.88 375.711 209.777C375.044 209.676 374.158 209.466 373.054 209.148C371.95 208.83 370.948 208.421 370.046 207.922C369.144 207.423 368.191 206.713 367.184 205.791C366.21 204.871 365.405 203.801 364.768 202.579C363.292 199.741 362.675 196.149 362.918 191.803C363.081 188.896 363.672 186.349 364.691 184.162C365.743 181.978 366.942 180.314 368.287 179.171C369.665 178.03 371.205 177.139 372.908 176.497C375.659 175.433 378.393 174.977 381.109 175.128C385.007 175.346 387.785 175.822 389.442 176.556C390.193 176.886 390.855 177.372 391.428 178.013C392.001 178.654 392.256 179.549 392.191 180.699C392.127 181.85 391.758 183.287 391.085 185.012C390.444 186.739 389.596 187.573 388.541 187.514C388.222 187.497 387.054 187.175 385.038 186.549C383.022 185.924 381.646 185.591 380.911 185.55C379.793 185.487 378.8 186.057 377.931 187.258C377.095 188.461 376.612 190.213 376.484 192.513C376.355 194.814 376.591 196.622 377.19 197.937C377.822 199.255 378.697 199.944 379.815 200.007C380.614 200.052 382.069 199.812 384.182 199.289C386.328 198.736 387.577 198.47 387.928 198.489C388.919 198.545 389.635 199.498 390.076 201.35C390.549 203.203 390.755 204.689 390.692 205.807C390.63 206.925 390.228 207.8 389.488 208.432C388.781 209.033 387.78 209.458 386.484 209.706Z" fill="white"/>
<path d="M415.109 212.94C412.467 212.673 410.215 212.204 408.353 211.533C406.526 210.833 404.881 209.766 403.418 208.332C400.457 205.491 399.337 200.505 400.058 193.374C400.361 190.381 401.055 187.814 402.14 185.672C403.257 183.534 404.662 181.891 406.354 180.743C409.668 178.505 413.76 177.633 418.631 178.126C421.147 178.38 423.305 178.824 425.106 179.456C426.94 180.092 428.625 181.083 430.161 182.428C433.259 185.186 434.464 189.971 433.774 196.785C433.156 202.897 431.188 207.249 427.87 209.841C424.553 212.432 420.299 213.465 415.109 212.94ZM414.36 204.614C414.697 205.099 415.199 205.375 415.868 205.442C416.537 205.51 417.084 205.34 417.512 204.933C417.942 204.494 418.36 203.539 418.766 202.069C419.176 200.566 419.517 198.462 419.791 195.756C420.065 193.05 420.148 190.951 420.042 189.461C419.935 187.971 419.713 186.984 419.376 186.499C419.039 186.015 418.537 185.739 417.868 185.671C417.2 185.604 416.652 185.773 416.225 186.18C415.797 186.587 415.382 187.51 414.98 188.949C414.577 190.388 414.238 192.46 413.965 195.166C413.691 197.873 413.604 200.003 413.704 201.557C413.807 203.079 414.026 204.098 414.36 204.614Z" fill="white"/>
<path d="M453.882 215.883C453.821 216.295 452.806 216.483 450.837 216.45C448.869 216.416 446.903 216.253 444.941 215.962C443.01 215.675 441.776 215.378 441.24 215.072C440.734 214.77 440.517 214.382 440.588 213.907L445.125 183.379C445.247 182.556 446.363 182.123 448.472 182.081C450.613 182.043 453.266 182.259 456.431 182.73C459.596 183.2 461.635 183.519 462.548 183.687C463.498 183.828 464.599 184.041 465.851 184.324C467.103 184.607 468.076 184.913 468.771 185.243C469.498 185.577 470.279 185.985 471.113 186.465C471.979 186.949 472.623 187.514 473.045 188.159C473.472 188.772 473.866 189.494 474.228 190.324C474.88 191.812 475.018 193.822 474.642 196.355C474.27 198.855 473.528 200.912 472.414 202.526C471.337 204.113 470.037 205.246 468.512 205.926C471.301 212.196 472.58 216.106 472.35 217.657C472.119 219.208 468.886 219.52 462.65 218.594C460.846 218.325 459.608 218.061 458.935 217.799C458.262 217.537 457.871 217.123 457.761 216.557L456.128 206.317L455.328 206.15L453.882 215.883ZM456.415 198.838L457.649 199.022C459.485 199.295 460.615 198.007 461.038 195.158C461.254 193.702 461.154 192.636 460.737 191.959C460.352 191.287 459.842 190.904 459.209 190.81L457.642 190.577L456.415 198.838Z" fill="white"/>
<path d="M494.562 224.235L483.446 222.055C481.907 221.753 480.893 221.44 480.402 221.116C479.911 220.791 479.715 220.378 479.814 219.875L485.643 190.154C485.803 189.337 486.262 188.824 487.021 188.614C487.786 188.373 489.016 188.418 490.712 188.751L501.31 190.83C507.339 192.012 511.266 194.021 513.09 196.857C514.92 199.662 515.223 204.189 513.997 210.438C512.771 216.687 510.716 220.849 507.831 222.925C504.951 224.969 500.529 225.406 494.562 224.235ZM499.368 197.737C498.614 197.589 498.1 197.553 497.824 197.63L494.092 216.659L495.845 217.199C496.787 217.383 497.641 216.768 498.408 215.353C499.206 213.945 499.968 211.388 500.695 207.682C501.421 203.977 501.657 201.447 501.401 200.092C501.145 198.738 500.467 197.953 499.368 197.737Z" fill="white"/>
<defs>
<linearGradient id="paint0_linear_3_348" x1="121.5" y1="179.5" x2="493" y2="145" gradientUnits="userSpaceOnUse">
<stop stop-color="#FCFCFC" stop-opacity="0.25"/>
<stop offset="1" stop-color="#C4C4C4" stop-opacity="0"/>
</linearGradient>
</defs>
</svg>
