<svg width="258" height="248" viewBox="0 0 258 248" fill="none" xmlns="http://www.w3.org/2000/svg">
<rect y="89" width="99" height="70" rx="15" fill="#DDDDDD"/>
<path d="M19.2817 135.388C12.2996 129.401 12.2996 118.599 19.2817 112.612L106.487 37.8446C116.216 29.5025 131.25 36.4158 131.25 49.2321L131.25 198.768C131.25 211.584 116.216 218.497 106.487 210.155L19.2817 135.388Z" fill="#DDDDDD"/>
<path d="M173 75V75C195.365 103.839 195.365 144.161 173 173V173" stroke="#DDDDDD" stroke-width="25" stroke-linecap="round"/>
<path d="M214 35L223.957 50.7104C232.257 63.8058 238.241 78.2319 241.648 93.357V93.357C246.476 114.795 246.003 137.088 240.27 158.302L239.706 160.388C235.924 174.382 230.048 187.724 222.278 199.962L214 213" stroke="#DDDDDD" stroke-width="25" stroke-linecap="round"/>
</svg>
